Coordinates
version=1
nRows=20
nColumns=63
inDegrees=yes

Units are S.I. units (second, meters, Newtons, ...)
If the header above contains a line with 'inDegrees', this indicates whether rotational values are in degrees (yes) or radians (no).

endheader
time	pelvis_tilt	pelvis_list	pelvis_rotation	pelvis_tx	pelvis_ty	pelvis_tz	hip_flexion_r	hip_adduction_r	hip_rotation_r	knee_angle_r	knee_angle_r_beta	ankle_angle_r	subtalar_angle_r	mtp_angle_r	hip_flexion_l	hip_adduction_l	hip_rotation_l	knee_angle_l	knee_angle_l_beta	ankle_angle_l	subtalar_angle_l	mtp_angle_l	L5_S1_Flex_Ext	L5_S1_Lat_Bending	L5_S1_axial_rotation	L4_L5_Flex_Ext	L4_L5_Lat_Bending	L4_L5_axial_rotation	L3_L4_Flex_Ext	L3_L4_Lat_Bending	L3_L4_axial_rotation	L2_L3_Flex_Ext	L2_L3_Lat_Bending	L2_L3_axial_rotation	L1_L2_Flex_Ext	L1_L2_Lat_Bending	L1_L2_axial_rotation	L1_T12_Flex_Ext	L1_T12_Lat_Bending	L1_T12_axial_rotation	Abs_r3	Abs_r2	Abs_r1	Abs_t1	Abs_t2	neck_flexion	neck_bending	neck_rotation	arm_flex_r	arm_add_r	arm_rot_r	elbow_flex_r	pro_sup_r	wrist_flex_r	wrist_dev_r	arm_flex_l	arm_add_l	arm_rot_l	elbow_flex_l	pro_sup_l	wrist_flex_l	wrist_dev_l
1.050000	-0.335960	-2.206863	86.020466	0.386085	0.855648	0.553524	1.821840	1.557515	4.367535	6.827005	0.119154	39.128387	12.227093	0.000000	8.615017	-7.159646	-13.835741	21.050385	0.367399	42.981104	9.371241	0.000000	0.060893	0.114946	1.017481	0.113084	0.152878	1.081074	0.100041	0.279480	1.081074	0.069595	0.279480	0.890296	0.056545	0.234398	0.826704	0.034794	0.178051	0.763111	0.434952	1.300291	5.658927	0.000000	0.000000	22.780048	0.931840	-5.848502	4.837840	-10.368430	40.575204	45.227061	63.679864	8.718316	11.756435	7.297915	-14.841901	52.649403	55.741842	57.279615	-2.764656	0.024687
1.066667	-0.385303	-2.223574	85.900229	0.386301	0.855848	0.553309	1.712666	1.542889	4.858605	6.568392	0.114640	39.015714	11.757505	0.000000	8.517906	-7.143850	-14.179418	20.921946	0.365157	42.946366	9.663774	0.000000	0.057733	0.117259	0.989659	0.107215	0.155954	1.051513	0.094849	0.285103	1.051513	0.065983	0.285103	0.865952	0.053610	0.239114	0.804098	0.032988	0.181634	0.742244	0.412378	1.326455	5.504186	0.000000	0.000000	22.717231	1.099767	-5.449589	4.909451	-10.418026	40.572510	45.394526	63.624317	8.490758	11.878292	7.233960	-14.878024	52.357356	55.905956	57.454689	-2.804453	-0.081764
1.083333	-0.441357	-2.246259	85.796633	0.386540	0.856021	0.553134	1.648260	1.515110	5.123875	6.373103	0.111232	38.979452	11.536512	0.000000	8.443465	-7.123552	-14.484431	20.821405	0.363402	42.881962	9.911410	0.000000	0.054888	0.117656	0.975641	0.101933	0.156483	1.036618	0.090176	0.286069	1.036618	0.062732	0.286069	0.853686	0.050969	0.239925	0.792708	0.031363	0.182250	0.731730	0.392063	1.330951	5.426220	0.000000	0.000000	22.629474	1.273848	-5.164420	4.902718	-10.455876	40.363621	45.604086	63.774985	8.341572	12.095914	7.198399	-14.906841	52.123194	56.055119	57.553656	-2.795765	-0.099519
1.100000	-0.517270	-2.266063	85.747642	0.386804	0.856179	0.552962	1.585464	1.469826	5.376073	6.185759	0.107962	38.941626	11.261565	0.000000	8.380608	-7.085800	-14.757630	20.733665	0.361871	42.771320	10.154138	0.000000	0.051636	0.114345	0.959741	0.095893	0.152078	1.019725	0.084833	0.278018	1.019725	0.059015	0.278018	0.839773	0.047949	0.233172	0.779790	0.029505	0.177120	0.719806	0.368831	1.293490	5.337792	0.000000	0.000000	22.534387	1.493810	-4.881213	4.875943	-10.480528	40.132970	45.812918	63.985963	8.215768	12.339110	7.129570	-14.945319	51.831102	56.210589	57.572483	-2.670827	0.002120
1.116667	-0.621186	-2.307685	85.715222	0.387138	0.856272	0.552809	1.569093	1.402886	5.622097	6.040574	0.105428	38.919500	10.970031	0.000000	8.352496	-7.023284	-14.986620	20.662470	0.360628	42.609285	10.344029	0.000000	0.052134	0.106388	0.952347	0.096818	0.141495	1.011869	0.085651	0.258671	1.011869	0.059584	0.258671	0.833304	0.048412	0.216946	0.773782	0.029789	0.164794	0.714261	0.372389	1.203477	5.296670	0.000000	0.000000	22.452538	1.717670	-4.644669	4.816130	-10.497429	39.874679	46.028562	64.191834	8.112048	12.626021	7.037028	-14.993374	51.510860	56.362648	57.542282	-2.430656	0.196709
1.133333	-0.755082	-2.341782	85.705331	0.387520	0.856339	0.552678	1.558442	1.309932	5.884948	5.921920	0.103357	38.896748	10.620576	0.000000	8.328857	-6.919337	-15.121185	20.599381	0.359527	42.384311	10.410200	0.000000	0.051900	0.093750	0.948311	0.096384	0.124688	1.007580	0.085267	0.227945	1.007580	0.059317	0.227945	0.829772	0.048195	0.191176	0.770503	0.029656	0.145219	0.711233	0.370718	1.060524	5.274221	0.000000	0.000000	22.400155	1.936655	-4.409832	4.780016	-10.516865	39.723956	46.218122	64.333627	7.989668	12.871459	6.920448	-15.049431	51.158896	56.512431	57.443266	-2.117118	0.441653
1.150000	-0.913398	-2.365028	85.709957	0.387933	0.856377	0.552534	1.545016	1.191519	6.122922	5.827886	0.101716	38.866299	10.277244	0.000000	8.303964	-6.786357	-15.206291	20.549535	0.358657	42.125666	10.406313	0.000000	0.051697	0.077492	0.944986	0.096006	0.103064	1.004048	0.084933	0.188414	1.004048	0.059084	0.188414	0.826863	0.048006	0.158022	0.767801	0.029540	0.120035	0.708740	0.369266	0.876604	5.255730	0.000000	0.000000	22.376585	2.117575	-4.162205	4.761692	-10.528117	39.655829	46.374833	64.451243	7.861511	13.060038	6.772911	-15.113966	50.780063	56.661161	57.307506	-1.752386	0.703127
1.166667	-1.093274	-2.389070	85.704640	0.388399	0.856379	0.552386	1.534098	1.053087	6.405099	5.740601	0.100192	38.807343	9.903088	0.000000	8.279255	-6.637437	-15.312847	20.500011	0.357793	41.858298	10.408187	0.000000	0.053428	0.058028	0.945554	0.099221	0.077177	1.004651	0.087776	0.141089	1.004651	0.061063	0.141089	0.827360	0.049613	0.118331	0.768263	0.030529	0.089886	0.709166	0.381629	0.656425	5.258890	0.000000	0.000000	22.384642	2.272320	-3.897932	4.777706	-10.519627	39.675327	46.465436	64.534327	7.783696	13.195878	6.588932	-15.176794	50.359474	56.793010	57.268929	-1.398053	0.930961
1.183333	-1.280009	-2.408095	85.706820	0.388859	0.856364	0.552228	1.532227	0.908345	6.693801	5.691379	0.099333	38.732665	9.493742	0.000000	8.253124	-6.473551	-15.370648	20.448566	0.356895	41.582700	10.356497	0.000000	0.055498	0.038022	0.941775	0.103065	0.050569	1.000636	0.091178	0.092447	1.000636	0.063429	0.092447	0.824053	0.051535	0.077535	0.765192	0.031712	0.058896	0.706331	0.396416	0.430114	5.237870	0.000000	0.000000	22.432774	2.399809	-3.569301	4.842491	-10.501610	39.829222	46.499998	64.609671	7.671003	13.236341	6.375009	-15.227870	49.890933	56.909060	57.238990	-1.031430	1.168091
1.200000	-1.470679	-2.430957	85.713558	0.389280	0.856332	0.552077	1.543696	0.762069	7.057535	5.665291	0.098878	38.633963	8.973010	0.000000	8.233298	-6.282715	-15.322621	20.379722	0.355693	41.318770	10.172580	0.000000	0.058404	0.018016	0.932170	0.108462	0.023961	0.990431	0.095952	0.043803	0.990431	0.066750	0.043803	0.815649	0.054234	0.036737	0.757389	0.033372	0.027906	0.699128	0.417173	0.203796	5.184453	0.000000	0.000000	22.512909	2.522759	-3.198242	4.966697	-10.485434	40.142659	46.484477	64.619756	7.509151	13.186328	6.149859	-15.261312	49.390776	57.009447	57.181302	-0.666808	1.420457
1.216667	-1.664120	-2.448480	85.729854	0.389721	0.856322	0.551862	1.525588	0.615131	7.494476	5.602885	0.097789	38.485141	8.362954	0.000000	8.199838	-6.080966	-15.239843	20.286763	0.354071	41.052975	9.957514	0.000000	0.062810	-0.001907	0.913769	0.116645	-0.002536	0.970880	0.103191	-0.004636	0.970880	0.071786	-0.004636	0.799548	0.058325	-0.003888	0.742437	0.035890	-0.002953	0.685327	0.448647	-0.021569	5.082109	0.000000	0.000000	22.548037	2.552259	-2.779521	5.135196	-10.447706	40.564034	46.388440	64.569065	7.379150	13.055121	5.934940	-15.307285	48.943353	57.087757	57.228167	-0.377976	1.545771
1.233333	-1.845343	-2.471821	85.762867	0.390072	0.856333	0.551634	1.504641	0.494373	8.182496	5.529326	0.096505	38.276434	7.406482	0.000000	8.180999	-5.869109	-15.045955	20.187675	0.352341	40.814701	9.646183	0.000000	0.067720	-0.019178	0.884875	0.125763	-0.025507	0.940180	0.111258	-0.046629	0.940180	0.077398	-0.046629	0.774266	0.062885	-0.039108	0.718961	0.038695	-0.029707	0.663656	0.483720	-0.216945	4.921411	0.000000	0.000000	22.596464	2.573610	-2.336228	5.349696	-10.417903	41.097151	46.241184	64.439862	7.163666	12.830888	5.734118	-15.307632	48.483622	57.130874	57.222177	-0.110336	1.707181
1.250000	-2.017081	-2.505201	85.781132	0.390423	0.856354	0.551411	1.512812	0.376893	8.737030	5.484331	0.095720	38.095098	6.653200	0.000000	8.160150	-5.676202	-14.935751	20.060920	0.350129	40.629930	9.454246	0.000000	0.073274	-0.034753	0.852598	0.136078	-0.046222	0.905885	0.120383	-0.084499	0.905885	0.083745	-0.084499	0.746023	0.068043	-0.070868	0.692736	0.041869	-0.053832	0.639448	0.523392	-0.393134	4.741892	0.000000	0.000000	22.656864	2.635046	-1.813891	5.572995	-10.382550	41.624351	46.082883	64.294848	6.868008	12.602815	5.552613	-15.262291	47.986870	57.141799	57.284151	0.141142	1.900263
1.266667	-2.171606	-2.551385	85.797773	0.390725	0.856382	0.551255	1.576131	0.261280	9.021120	5.509141	0.096153	37.972920	6.233037	0.000000	8.161049	-5.494081	-14.795409	19.927877	0.347807	40.491476	9.257571	0.000000	0.078531	-0.048017	0.815920	0.145839	-0.063862	0.866915	0.129018	-0.116747	0.866915	0.089753	-0.116747	0.713930	0.072923	-0.097915	0.662935	0.044872	-0.074378	0.611940	0.560936	-0.543173	4.537903	0.000000	0.000000	22.741108	2.716762	-1.284842	5.819813	-10.359850	42.159777	45.907909	64.119915	6.527739	12.324783	5.403990	-15.164622	47.467266	57.124505	57.365591	0.359471	2.121405
1.283333	-2.299034	-2.619977	85.810752	0.390974	0.856399	0.551185	1.710106	0.158967	9.037265	5.612182	0.097951	37.909381	6.132896	0.000000	8.201883	-5.332696	-14.604128	19.802599	0.345621	40.401769	9.028540	0.000000	0.085064	-0.058203	0.776342	0.157972	-0.077410	0.824863	0.139752	-0.141514	0.824863	0.097220	-0.141514	0.679299	0.078990	-0.118687	0.630778	0.048606	-0.090156	0.582256	0.607604	-0.658402	4.317780	0.000000	0.000000	22.864358	2.824210	-0.775255	6.092099	-10.363719	42.716240	45.736319	63.872099	6.122513	12.038875	5.290678	-15.021566	46.959629	57.090129	57.392118	0.524705	2.307284
1.300000	-2.401011	-2.686555	85.812155	0.391181	0.856434	0.551186	1.873991	0.074578	8.943369	5.762958	0.100583	37.875949	6.189526	0.000000	8.251217	-5.203222	-14.445995	19.687973	0.343620	40.370145	8.872392	0.000000	0.090222	-0.066069	0.738980	0.167552	-0.087872	0.785166	0.148226	-0.160640	0.785166	0.103115	-0.160640	0.646608	0.083780	-0.134728	0.600421	0.051553	-0.102341	0.554235	0.644449	-0.747384	4.109986	0.000000	0.000000	23.006024	2.982083	-0.294450	6.372862	-10.390182	43.252643	45.578240	63.572950	5.647890	11.745417	5.222803	-14.837486	46.498541	57.036380	57.297097	0.611709	2.474854
1.316667	-2.475007	-2.747758	85.794710	0.391335	0.856480	0.551269	2.075762	0.004514	8.672719	5.985540	0.104467	37.892042	6.479568	0.000000	8.311414	-5.091530	-14.232464	19.589771	0.341906	40.373184	8.653399	0.000000	0.093584	-0.071440	0.705359	0.173794	-0.095016	0.749444	0.153748	-0.173700	0.749444	0.106957	-0.173700	0.617189	0.086902	-0.145681	0.573104	0.053474	-0.110661	0.529019	0.668458	-0.808148	3.922994	0.000000	0.000000	23.169476	3.166996	0.117434	6.681349	-10.454596	43.834719	45.437115	63.165553	5.111189	11.456795	5.178363	-14.618937	46.053799	56.971604	57.155957	0.633657	2.594091
1.333333	-2.517052	-2.808700	85.772494	0.391442	0.856522	0.551409	2.321794	-0.048910	8.198367	6.292260	0.109821	37.965107	7.012658	0.000000	8.379940	-5.030210	-14.112712	19.511636	0.340542	40.429797	8.592363	0.000000	0.096750	-0.073400	0.673329	0.179675	-0.097622	0.715412	0.158951	-0.178464	0.715412	0.110576	-0.178464	0.589163	0.089842	-0.149677	0.547080	0.055283	-0.113696	0.504997	0.691078	-0.830312	3.744853	0.000000	0.000000	23.336048	3.395032	0.521076	6.961774	-10.515461	44.262438	45.315089	62.986116	4.667330	11.248860	5.119828	-14.372172	45.586634	56.889375	57.003383	0.626828	2.613364
1.350000	-2.536854	-2.869660	85.737947	0.391530	0.856545	0.551618	2.606963	-0.090392	7.557908	6.669186	0.116399	38.095831	7.754813	0.000000	8.464414	-4.997262	-14.008000	19.462516	0.339685	40.510346	8.558014	0.000000	0.099257	-0.073305	0.646584	0.184330	-0.097496	0.686996	0.163069	-0.178234	0.686996	0.113441	-0.178234	0.565761	0.092170	-0.149484	0.525350	0.056715	-0.113550	0.484938	0.708983	-0.829243	3.596107	0.000000	0.000000	23.522849	3.649180	0.884778	7.218946	-10.577652	44.590863	45.213555	62.947583	4.295381	11.086186	5.050159	-14.123615	45.109379	56.814166	56.819937	0.615307	2.591859
1.366667	-2.531873	-2.921408	85.714724	0.391575	0.856565	0.551869	2.909777	-0.121509	6.734826	7.103531	0.123980	38.277144	8.698900	0.000000	8.549394	-4.996724	-13.937626	19.430925	0.339134	40.607120	8.599757	0.000000	0.100263	-0.070669	0.623949	0.186199	-0.093990	0.662946	0.164722	-0.171825	0.662946	0.114591	-0.171825	0.545955	0.093104	-0.144108	0.506958	0.057290	-0.109466	0.467962	0.716170	-0.799423	3.470216	0.000000	0.000000	23.709217	3.907542	1.198092	7.426968	-10.645850	44.793027	45.161746	62.995229	3.969069	11.031125	4.981829	-13.878347	44.679885	56.738389	56.546941	0.559983	2.469813
